<svg width="20" height="20" viewBox="0 0 20 20" fill="none" xmlns="http://www.w3.org/2000/svg">
<path fill-rule="evenodd" clip-rule="evenodd" d="M19.21 5.89924V14.0502C19.21 17.0702 17.32 19.2002 14.3 19.2002H5.65C2.63 19.2002 0.75 17.0702 0.75 14.0502V5.89924C0.75 2.87924 2.64 0.750244 5.65 0.750244H14.3C17.32 0.750244 19.21 2.87924 19.21 5.89924Z" stroke="#212121" stroke-width="1.5" stroke-linecap="round" stroke-linejoin="round"/>
<path d="M3.28125 14.4309L4.80925 12.8179C5.34025 12.2549 6.22525 12.2279 6.78925 12.7579C6.80625 12.7749 7.72625 13.7099 7.72625 13.7099C8.28125 14.2749 9.18825 14.2839 9.75325 13.7299C9.79025 13.6939 12.0872 10.9079 12.0872 10.9079C12.6792 10.1889 13.7422 10.0859 14.4622 10.6789C14.5102 10.7189 16.6803 12.9459 16.6803 12.9459" stroke="#212121" stroke-width="1.5" stroke-linecap="round" stroke-linejoin="round"/>
<path fill-rule="evenodd" clip-rule="evenodd" d="M8.31269 7.13315C8.31269 8.10215 7.52769 8.88715 6.55869 8.88715C5.58969 8.88715 4.80469 8.10215 4.80469 7.13315C4.80469 6.16415 5.58969 5.37915 6.55869 5.37915C7.52769 5.38015 8.31269 6.16415 8.31269 7.13315Z" stroke="#212121" stroke-width="1.5" stroke-linecap="round" stroke-linejoin="round"/>
</svg>
