<svg width="70" height="70" viewBox="0 0 70 70" fill="none" xmlns="http://www.w3.org/2000/svg">
<path d="M31.7188 35C31.7188 35.8702 32.0645 36.7048 32.6798 37.3202C33.2952 37.9355 34.1298 38.2812 35 38.2812C35.8703 38.2812 36.7049 37.9355 37.3202 37.3202C37.9356 36.7048 38.2813 35.8702 38.2813 35C38.2813 34.1298 37.9356 33.2952 37.3202 32.6798C36.7049 32.0645 35.8703 31.7188 35 31.7188C34.1298 31.7188 33.2952 32.0645 32.6798 32.6798C32.0645 33.2952 31.7188 34.1298 31.7188 35ZM45.3906 35C45.3906 35.8702 45.7364 36.7048 46.3517 37.3202C46.9671 37.9355 47.8017 38.2812 48.6719 38.2812C49.5421 38.2812 50.3767 37.9355 50.9921 37.3202C51.6074 36.7048 51.9531 35.8702 51.9531 35C51.9531 34.1298 51.6074 33.2952 50.9921 32.6798C50.3767 32.0645 49.5421 31.7188 48.6719 31.7188C47.8017 31.7188 46.9671 32.0645 46.3517 32.6798C45.7364 33.2952 45.3906 34.1298 45.3906 35ZM18.0469 35C18.0469 35.8702 18.3926 36.7048 19.008 37.3202C19.6233 37.9355 20.4579 38.2812 21.3281 38.2812C22.1984 38.2812 23.033 37.9355 23.6483 37.3202C24.2637 36.7048 24.6094 35.8702 24.6094 35C24.6094 34.1298 24.2637 33.2952 23.6483 32.6798C23.033 32.0645 22.1984 31.7188 21.3281 31.7188C20.4579 31.7188 19.6233 32.0645 19.008 32.6798C18.3926 33.2952 18.0469 34.1298 18.0469 35ZM63.2461 23.1328C61.7012 19.4619 59.4864 16.167 56.6631 13.3369C53.8596 10.5232 50.5315 8.28667 46.8672 6.75391C43.1074 5.1748 39.1153 4.375 35 4.375H34.8633C30.7207 4.39551 26.708 5.21582 22.9346 6.8291C19.3017 8.37759 16.0048 10.6181 13.2276 13.4258C10.4317 16.249 8.23733 19.5303 6.71975 23.1875C5.14748 26.9746 4.35451 31.001 4.37502 35.1436C4.39822 39.8909 5.52135 44.5683 7.65627 48.8086V59.1992C7.65627 60.0332 7.98757 60.833 8.57728 61.4227C9.167 62.0125 9.96682 62.3438 10.8008 62.3438H21.1983C25.4386 64.4787 30.1159 65.6018 34.8633 65.625H35.0069C39.1016 65.625 43.0733 64.832 46.8125 63.2803C50.4583 61.7658 53.774 59.5553 56.5742 56.7725C59.3975 53.9766 61.6192 50.709 63.1709 47.0654C64.7842 43.292 65.6045 39.2793 65.625 35.1367C65.6455 30.9736 64.8389 26.9336 63.2461 23.1328ZM52.917 53.0742C48.125 57.8184 41.7676 60.4297 35 60.4297H34.8838C30.7617 60.4092 26.667 59.3838 23.0508 57.4561L22.4766 57.1484H12.8516V47.5234L12.544 46.9492C10.6162 43.333 9.59084 39.2383 9.57033 35.1162C9.54299 28.3008 12.1475 21.9023 16.9258 17.083C21.6973 12.2637 28.0752 9.59766 34.8906 9.57031H35.0069C38.4248 9.57031 41.7403 10.2334 44.8643 11.5459C47.9131 12.8242 50.6475 14.6631 52.999 17.0146C55.3438 19.3594 57.1895 22.1006 58.4678 25.1494C59.794 28.3076 60.4571 31.6572 60.4434 35.1162C60.4024 41.9248 57.7295 48.3027 52.917 53.0742Z" fill="#2E398F"/>
</svg>
