<svg width="20" height="20" viewBox="0 0 20 20" fill="none" xmlns="http://www.w3.org/2000/svg">
<mask id="mask0_430_8577" style="mask-type:luminance" maskUnits="userSpaceOnUse" x="0" y="0" width="20" height="20">
<path fill-rule="evenodd" clip-rule="evenodd" d="M0 0H19.9999V20H0V0Z" fill="white"/>
</mask>
<g mask="url(#mask0_430_8577)">
<path fill-rule="evenodd" clip-rule="evenodd" d="M5.664 1.5C3.135 1.5 1.5 3.233 1.5 5.916V14.084C1.5 16.767 3.135 18.5 5.664 18.5H14.332C16.864 18.5 18.5 16.767 18.5 14.084V5.916C18.5 3.233 16.864 1.5 14.334 1.5H5.664ZM14.332 20H5.664C2.276 20 0 17.622 0 14.084V5.916C0 2.378 2.276 0 5.664 0H14.334C17.723 0 20 2.378 20 5.916V14.084C20 17.622 17.723 20 14.332 20Z" fill="#212121"/>
</g>
<path fill-rule="evenodd" clip-rule="evenodd" d="M9.9939 14.75C9.5799 14.75 9.2439 14.414 9.2439 14V10C9.2439 9.586 9.5799 9.25 9.9939 9.25C10.4079 9.25 10.7439 9.586 10.7439 10V14C10.7439 14.414 10.4079 14.75 9.9939 14.75Z" fill="#212121"/>
<path fill-rule="evenodd" clip-rule="evenodd" d="M9.9989 7.2041C9.4459 7.2041 8.9939 6.7571 8.9939 6.2041C8.9939 5.6511 9.4369 5.2041 9.9889 5.2041H9.9989C10.5519 5.2041 10.9989 5.6511 10.9989 6.2041C10.9989 6.7571 10.5519 7.2041 9.9989 7.2041Z" fill="#212121"/>
</svg>
