<?xml version="1.0" standalone="no"?>
<!DOCTYPE svg PUBLIC "-//W3C//DTD SVG 20010904//EN"
 "http://www.w3.org/TR/2001/REC-SVG-20010904/DTD/svg10.dtd">
<svg version="1.0" xmlns="http://www.w3.org/2000/svg"
 width="360.000000pt" height="360.000000pt" viewBox="0 0 360.000000 360.000000"
 preserveAspectRatio="xMidYMid meet">

<g transform="translate(0.000000,360.000000) scale(0.100000,-0.100000)"
fill="#000000" stroke="none">
<path d="M1918 3353 c-8 -10 -30 -56 -49 -103 -27 -68 -35 -80 -37 -58 -4 33
-57 80 -86 76 -11 -2 -30 -17 -41 -35 -11 -18 -22 -32 -25 -33 -3 0 -14 17
-25 37 -27 51 -66 69 -116 54 -22 -7 -46 -23 -55 -36 -12 -19 -22 -23 -42 -19
-21 4 -40 -5 -83 -38 -31 -24 -71 -60 -89 -81 -18 -21 -46 -45 -61 -53 -32
-16 -35 -23 -16 -47 11 -14 19 -12 91 23 154 76 294 110 448 110 96 0 98 -1
88 -20 -9 -16 -21 -20 -65 -20 -83 0 -201 -19 -290 -47 -97 -31 -238 -100
-230 -113 3 -6 31 3 63 19 136 68 309 112 431 109 36 0 50 -3 31 -5 -180 -17
-278 -42 -413 -105 -66 -31 -86 -46 -82 -57 7 -22 -19 11 -133 164 -56 74
-118 145 -145 166 -89 67 -173 75 -202 19 -34 -66 -15 -112 131 -306 155 -206
233 -325 340 -519 64 -115 106 -178 157 -234 80 -88 124 -171 82 -155 -22 9
-19 -1 19 -54 41 -56 60 -100 116 -258 23 -64 44 -122 46 -129 4 -10 -7 -12
-43 -8 -93 8 -86 2 -169 166 -42 83 -99 185 -127 225 -60 87 -150 173 -220
209 -93 48 -207 31 -223 -34 -4 -13 -4 -26 -1 -29 3 -3 31 0 61 7 42 9 62 9
81 1 40 -18 30 -39 -30 -61 -110 -41 -182 -20 -206 59 -38 126 82 232 263 232
73 0 101 -8 215 -58 7 -3 -9 30 -35 75 -26 44 -80 138 -120 207 l-74 126 -45
-43 c-24 -24 -68 -80 -98 -124 -253 -382 -285 -833 -90 -1252 120 -257 309
-457 530 -563 115 -54 123 -55 140 -14 8 19 17 49 20 67 l6 32 -69 18 c-91 24
-148 61 -207 136 -38 48 -62 68 -113 92 -63 30 -64 32 -56 63 4 17 8 48 8 68
1 21 3 39 6 40 3 1 40 -6 83 -16 69 -16 90 -17 160 -7 45 6 106 11 135 11 45
0 59 5 93 32 34 27 50 33 104 36 43 3 78 -1 107 -12 44 -16 271 -28 261 -14
-2 5 -24 8 -49 8 -24 0 -44 3 -44 8 1 8 90 79 124 99 41 24 84 14 205 -47 130
-64 193 -111 314 -229 l78 -76 40 45 c82 94 184 332 226 530 13 62 18 127 18
245 -1 140 -4 174 -28 267 -62 251 -152 422 -316 606 -42 47 -111 114 -154
148 -130 102 -390 225 -418 197 -21 -21 24 -171 95 -322 66 -140 99 -234 111
-312 5 -37 3 -48 -13 -62 -19 -17 -19 -16 -26 36 -7 68 -44 189 -55 183 -7 -5
-74 146 -77 174 -1 8 -13 44 -27 78 -15 35 -32 91 -38 123 -12 60 -7 166 8
179 14 13 63 21 63 10 0 -5 -9 -10 -20 -10 -45 0 -16 -26 46 -43 81 -21 207
-80 294 -136 69 -46 61 -44 181 -25 55 9 121 -24 156 -77 26 -40 28 -50 28
-143 1 -82 4 -107 20 -133 21 -35 45 -44 45 -16 0 9 -7 24 -16 34 -14 15 -14
23 -4 55 17 51 8 159 -18 209 -24 47 -63 86 -111 110 -29 14 -49 16 -121 11
l-86 -7 -50 44 c-27 24 -59 49 -72 56 -13 7 -31 25 -40 41 -10 15 -42 47 -72
69 -42 32 -61 40 -81 36 -20 -5 -28 -1 -37 19 -11 26 -49 44 -61 29 -4 -4 -20
-37 -36 -73 -60 -141 -44 -267 69 -533 71 -169 81 -199 96 -275 l10 -54 -52
-74 c-28 -40 -49 -76 -46 -79 2 -3 27 27 54 66 61 89 129 150 214 192 57 28
74 32 145 31 126 -1 175 -40 175 -137 0 -51 -30 -87 -72 -87 -59 0 -70 18 -43
70 32 63 -42 49 -120 -22 -105 -95 -173 -222 -253 -468 -50 -155 -59 -200 -41
-200 38 -1 41 -16 16 -66 -14 -27 -35 -60 -46 -74 l-22 -25 7 25 c4 14 17 46
30 72 13 26 24 50 24 53 0 3 -16 5 -36 5 -27 0 -35 4 -31 14 3 8 11 34 17 58
26 98 95 297 125 365 19 40 53 103 78 140 114 174 228 237 291 162 l26 -31 0
26 c0 36 -45 69 -84 60 -117 -25 -245 -174 -338 -394 -33 -77 -90 -250 -118
-357 -7 -29 -20 -49 -43 -64 -17 -12 -47 -36 -64 -53 l-33 -30 0 35 c0 20 -7
60 -16 89 -10 34 -14 69 -10 94 11 68 84 278 125 360 27 53 37 84 32 95 -5 9
-11 38 -15 64 -6 53 -36 161 -41 155 -2 -2 5 -37 15 -78 11 -41 20 -95 19
-120 l0 -45 -33 80 c-35 86 -104 225 -110 225 -3 0 19 -51 49 -112 29 -62 61
-138 70 -169 l18 -57 -46 -108 c-25 -60 -55 -143 -67 -184 -31 -111 -28 -104
-45 -90 -9 7 -17 11 -18 9 -17 -23 -69 -156 -78 -197 l-11 -54 -35 34 c-82 79
-125 221 -127 418 0 121 2 143 26 214 15 43 23 75 18 70 -16 -18 -60 -156 -60
-192 0 -20 -3 -47 -6 -59 l-6 -23 -18 23 c-9 12 -31 46 -48 76 l-30 54 20 46
c27 65 45 150 53 260 6 82 5 93 -8 83 -7 -7 -26 -41 -42 -77 -30 -71 -55 -87
-100 -67 -40 19 -59 68 -59 157 -1 104 9 147 41 185 40 48 98 73 183 78 66 3
79 1 110 -20 19 -13 57 -57 85 -98 95 -142 109 -156 31 -31 -38 61 -40 70 -44
156 -5 113 11 177 100 395 54 130 68 155 88 161 22 6 22 7 4 8 -11 1 -28 -7
-36 -16z m-312 -144 c16 -18 16 -19 -17 -19 -46 0 -67 14 -50 33 14 18 44 12
67 -14z m-181 -70 c-8 -12 -35 -12 -35 0 0 11 22 20 33 14 4 -2 5 -9 2 -14z
m743 -135 c226 -90 459 -314 593 -569 193 -366 196 -793 8 -1167 -45 -91 -98
-172 -106 -164 -3 2 15 37 40 78 75 124 130 266 163 420 25 116 25 371 0 488
-37 174 -111 343 -207 480 -61 87 -198 231 -274 290 -76 59 -199 126 -274 151
-37 12 -70 26 -76 31 -16 15 41 -1 133 -38z m-416 -221 l3 -53 -28 29 -28 28
23 48 c25 52 24 53 30 -52z m98 -1153 c0 -5 -5 -10 -11 -10 -5 0 -7 5 -4 10 3
6 8 10 11 10 2 0 4 -4 4 -10z m-222 -194 c14 -22 40 -56 56 -75 l31 -33 -38 4
c-29 3 -36 1 -32 -10 4 -11 -2 -13 -27 -8 -18 3 -62 8 -98 12 -60 6 -68 4 -95
-18 -49 -41 -74 -51 -91 -37 -18 15 -18 29 1 29 8 0 28 18 44 40 57 78 100
119 142 133 56 19 75 12 107 -37z m392 -40 c0 -2 -8 -10 -17 -17 -16 -13 -17
-12 -4 4 13 16 21 21 21 13z"/>
<path d="M1992 3334 c10 -28 7 -41 -39 -140 -71 -152 -77 -184 -8 -44 64 130
73 166 51 195 -14 19 -15 18 -4 -11z"/>
<path d="M1870 2973 c-15 -70 -8 -194 14 -243 19 -45 20 -35 1 37 -17 66 -19
149 -4 212 5 24 8 46 5 48 -2 3 -10 -22 -16 -54z"/>
<path d="M842 2932 c-49 -67 -65 -170 -41 -255 9 -32 7 -43 -10 -71 -19 -30
-19 -46 0 -46 4 0 21 22 39 50 29 45 31 53 21 81 -23 66 -7 164 35 210 13 14
12 19 -4 39 l-19 23 -21 -31z"/>
<path d="M2510 2867 c0 -22 37 -50 56 -43 15 6 15 9 1 29 -17 26 -57 36 -57
14z"/>
<path d="M930 2790 c-11 -11 -20 -32 -20 -47 l0 -27 35 34 c19 19 35 40 35 47
0 19 -27 16 -50 -7z"/>
<path d="M2584 2795 c-4 -9 1 -24 12 -36 16 -18 19 -18 33 -4 12 12 13 19 5
33 -15 23 -43 27 -50 7z"/>
<path d="M943 2692 c-78 -102 -102 -141 -158 -252 -97 -193 -145 -388 -145
-590 0 -142 19 -261 66 -399 94 -281 240 -496 440 -646 117 -89 305 -182 304
-152 -1 7 -45 33 -99 59 -290 139 -503 396 -620 747 -47 142 -64 249 -64 391
0 147 19 258 69 402 59 170 121 283 231 419 29 36 53 71 53 77 0 31 -24 14
-77 -56z"/>
<path d="M2642 2737 c-9 -10 -7 -19 4 -35 20 -29 34 -28 34 2 0 31 -23 51 -38
33z"/>
<path d="M1437 2709 c-27 -16 -47 -71 -46 -126 l2 -48 7 57 c10 80 31 108 78
108 39 0 67 -14 114 -58 l27 -25 -20 -29 c-12 -16 -19 -32 -16 -35 3 -3 12 4
19 16 20 33 28 25 29 -31 1 -34 4 -42 6 -23 7 47 19 49 38 8 13 -26 18 -59 18
-106 -1 -38 0 -67 2 -65 2 2 8 30 13 61 9 55 8 60 -24 114 -19 30 -34 59 -34
63 0 4 -24 30 -54 59 -72 68 -117 84 -159 60z"/>
<path d="M1954 2560 c9 -32 39 -101 43 -97 2 3 -8 29 -22 58 -14 30 -23 47
-21 39z"/>
<path d="M642 2548 c-19 -19 -14 -49 8 -55 27 -7 26 -40 -6 -135 -25 -75 -59
-119 -119 -154 -13 -7 -19 -22 -19 -46 0 -28 -6 -38 -29 -52 -26 -15 -29 -20
-24 -53 4 -21 23 -55 47 -84 22 -26 40 -50 40 -53 0 -3 -13 -6 -28 -6 -16 0
-37 -9 -47 -20 -15 -17 -16 -24 -7 -45 10 -21 19 -25 52 -25 22 0 40 -4 40
-10 0 -5 -20 -32 -45 -60 -65 -74 -73 -124 -22 -148 22 -11 26 -18 21 -37 -9
-37 3 -59 50 -92 30 -21 52 -48 70 -86 31 -66 62 -190 48 -195 -29 -9 -44 -30
-38 -50 11 -33 52 -39 81 -12 41 39 40 61 -15 212 -86 236 -105 327 -104 508
0 177 18 267 99 490 49 134 53 164 29 198 -17 24 -62 30 -82 10z m-74 -515
c-2 -17 -9 -28 -18 -28 -9 0 -16 11 -18 28 -3 22 1 27 18 27 17 0 21 -5 18
-27z m0 -349 c-5 -26 -38 -31 -38 -7 0 24 21 46 33 34 5 -5 7 -17 5 -27z"/>
<path d="M2861 2534 c-12 -15 -21 -36 -21 -47 0 -12 25 -93 55 -181 75 -222
89 -293 88 -456 0 -164 -22 -279 -94 -492 -27 -80 -49 -157 -49 -171 0 -54 66
-97 98 -65 19 19 14 56 -8 63 -24 8 -25 31 -5 108 22 86 59 152 100 177 44 27
58 53 50 89 -5 24 -2 30 25 41 26 11 30 17 30 51 0 31 -9 48 -50 95 -27 31
-50 61 -50 66 0 4 17 8 38 8 43 0 62 14 62 45 0 30 -19 45 -57 45 -18 0 -33 3
-33 6 0 4 16 24 36 46 42 46 67 100 58 123 -4 9 -17 21 -30 26 -18 6 -24 16
-24 40 0 21 -8 37 -27 52 -87 72 -125 138 -140 242 -5 37 -3 43 16 48 23 6 28
36 9 55 -20 20 -55 13 -77 -14z m187 -501 c-3 -30 -25 -42 -34 -19 -9 22 2 46
21 46 12 0 15 -8 13 -27z m2 -354 c0 -12 -7 -19 -20 -19 -14 0 -20 7 -20 23 0
13 3 27 7 30 10 11 33 -13 33 -34z"/>
<path d="M1875 2520 c9 -16 18 -30 21 -30 2 0 -2 14 -11 30 -9 17 -18 30 -21
30 -2 0 2 -13 11 -30z"/>
<path d="M1426 2475 c9 -14 21 -25 27 -25 6 0 0 11 -13 25 -13 14 -25 25 -27
25 -2 0 4 -11 13 -25z"/>
<path d="M1753 2378 c3 -7 26 -75 51 -150 53 -158 70 -260 63 -373 -3 -47 -2
-68 3 -50 4 17 8 71 9 120 1 72 -5 112 -30 199 -31 112 -86 266 -96 266 -2 0
-2 -6 0 -12z"/>
<path d="M1681 2324 c0 -11 3 -14 6 -6 3 7 2 16 -1 19 -3 4 -6 -2 -5 -13z"/>
<path d="M1120 2287 c83 -25 95 -27 60 -11 -19 9 -51 18 -70 20 -31 4 -30 3
10 -9z"/>
<path d="M1246 2235 c10 -8 24 -14 29 -14 6 0 1 6 -9 14 -11 8 -24 15 -30 15
-5 0 -1 -7 10 -15z"/>
<path d="M1315 2190 c3 -5 8 -10 11 -10 2 0 4 5 4 10 0 6 -5 10 -11 10 -5 0
-7 -4 -4 -10z"/>
<path d="M1831 1764 c0 -11 3 -14 6 -6 3 7 2 16 -1 19 -3 4 -6 -2 -5 -13z"/>
<path d="M2145 1291 c-24 -13 -57 -45 -84 -81 -84 -116 -125 -127 -202 -55
-26 25 -56 45 -65 45 -9 0 -41 -7 -72 -16 -69 -20 -156 -13 -219 18 -43 22
-44 22 -151 5 -59 -10 -120 -17 -137 -18 -26 0 -22 -4 35 -32 63 -31 68 -32
203 -32 75 0 137 -1 137 -1 0 -1 -34 -14 -75 -30 -41 -16 -75 -32 -75 -36 0
-5 -19 -8 -43 -8 -32 0 -56 8 -92 33 -127 85 -178 103 -202 71 -20 -27 -17
-31 32 -50 34 -12 66 -39 121 -99 84 -93 134 -121 234 -132 70 -7 70 -8 39
-108 -35 -113 -93 -237 -153 -325 -35 -52 -56 -93 -56 -111 0 -41 35 -69 85
-69 23 0 63 -7 89 -16 65 -22 111 -12 136 29 21 35 58 186 91 372 11 66 22
122 24 124 2 2 1 -29 -2 -69 l-6 -73 121 5 c67 2 126 8 132 14 6 6 -30 58
-100 144 -75 91 -126 165 -161 233 -41 80 -47 96 -30 87 12 -6 34 -36 50 -68
16 -31 39 -68 50 -82 12 -14 63 -77 113 -140 158 -198 252 -302 354 -392 186
-162 259 -208 337 -208 60 0 75 7 92 41 45 85 6 150 -259 429 -116 122 -279
323 -350 432 l-18 27 39 8 c68 14 174 7 227 -16 149 -65 290 -215 271 -288 -5
-22 -3 -24 22 -21 26 3 28 6 26 45 -3 82 -58 152 -188 237 -38 25 -90 62 -115
81 -25 19 -66 42 -92 51 -58 19 -70 34 -28 34 40 0 91 -22 149 -63 70 -50 81
-53 31 -8 -98 89 -194 118 -265 82z m-679 -112 c37 -23 41 -29 20 -29 -16 0
-77 49 -62 50 5 0 24 -9 42 -21z m849 -446 c23 -34 14 -28 -35 23 -38 39 -40
43 -12 23 18 -12 39 -33 47 -46z m60 -44 c11 -17 -1 -21 -15 -4 -8 9 -8 15 -2
15 6 0 14 -5 17 -11z m51 -51 c28 -30 17 -30 -18 0 -16 13 -24 32 -15 32 2 0
16 -14 33 -32z m-91 -28 c21 -22 37 -40 34 -40 -3 0 -23 18 -44 40 -21 22 -37
40 -34 40 3 0 23 -18 44 -40z m75 5 c7 -9 8 -15 2 -15 -5 0 -12 7 -16 15 -3 8
-4 15 -2 15 2 0 9 -7 16 -15z m166 -145 c49 -58 88 -119 81 -126 -3 -3 -21 18
-40 48 -18 29 -58 80 -88 113 -31 34 -41 50 -24 37 16 -13 48 -45 71 -72z
m-176 59 c0 -6 -4 -7 -10 -4 -5 3 -10 11 -10 16 0 6 5 7 10 4 6 -3 10 -11 10
-16z"/>
<path d="M2137 1123 c-7 -11 207 -301 228 -309 8 -4 27 2 43 12 50 32 122 97
122 109 0 23 -119 123 -183 155 -65 32 -198 53 -210 33z"/>
<path d="M2765 1086 c-27 -35 -27 -37 -15 -101 34 -178 -99 -324 -247 -271
-52 18 -63 6 -23 -27 52 -44 113 -46 190 -7 82 42 133 134 133 240 -1 36 -6
78 -12 93 -9 23 -8 34 6 58 12 21 14 32 6 40 -8 8 -18 1 -38 -25z"/>
<path d="M780 1100 c0 -6 7 -22 16 -35 14 -21 14 -32 4 -76 -25 -105 4 -204
80 -273 56 -50 79 -57 184 -55 105 3 117 -2 198 -76 68 -63 110 -81 130 -57 8
9 19 30 26 45 10 24 9 29 -6 34 -76 27 -125 50 -184 84 l-69 40 -64 -16 c-78
-19 -128 -9 -179 36 -67 58 -89 137 -66 237 10 39 8 47 -17 82 -27 38 -53 52
-53 30z"/>
<path d="M910 942 c0 -26 32 -53 49 -43 11 7 10 13 -4 35 -20 30 -45 34 -45 8z"/>
<path d="M2470 848 c-80 -64 -91 -78 -66 -78 26 0 156 102 156 122 0 10 -3 18
-7 17 -5 0 -42 -28 -83 -61z"/>
<path d="M985 869 c-9 -26 15 -52 38 -43 22 8 22 27 -1 47 -24 22 -29 21 -37
-4z"/>
<path d="M1054 805 c-8 -21 4 -35 32 -35 29 0 31 11 6 33 -23 21 -31 21 -38 2z"/>
<path d="M2517 802 c-22 -24 -21 -32 2 -32 23 0 54 28 46 41 -10 14 -31 11
-48 -9z"/>
<path d="M2016 613 c-3 -4 -67 -10 -141 -13 -145 -5 -188 -23 -70 -28 67 -3
223 12 234 23 2 3 0 10 -5 15 -6 6 -14 7 -18 3z"/>
<path d="M2025 549 c-16 -5 -91 -12 -166 -16 l-136 -6 -11 -57 c-19 -88 -17
-100 16 -100 34 0 72 36 72 68 0 17 6 22 24 22 18 0 31 -11 50 -45 21 -35 33
-45 53 -45 15 0 34 7 43 15 13 12 23 13 49 4 42 -15 68 -6 115 37 l38 36 -48
49 c-51 52 -52 52 -99 38z m-8 -75 c2 -6 -8 -17 -22 -24 -30 -16 -58 -5 -63
24 -3 14 3 17 39 14 23 -2 44 -8 46 -14z"/>
</g>
</svg>
