<svg width="21" height="20" viewBox="0 0 21 20" fill="none" xmlns="http://www.w3.org/2000/svg">
<path fill-rule="evenodd" clip-rule="evenodd" d="M9.31924 20H4.43324C1.98924 20 0.000244141 18.011 0.000244141 15.565V4.436C0.000244141 1.99 1.98924 0 4.43324 0H9.30824C11.7542 0 13.7442 1.99 13.7442 4.436V5.368C13.7442 5.782 13.4082 6.118 12.9942 6.118C12.5802 6.118 12.2442 5.782 12.2442 5.368V4.436C12.2442 2.816 10.9272 1.5 9.30824 1.5H4.43324C2.81624 1.5 1.50024 2.816 1.50024 4.436V15.565C1.50024 17.184 2.81624 18.5 4.43324 18.5H9.31924C10.9312 18.5 12.2442 17.188 12.2442 15.576V14.633C12.2442 14.219 12.5802 13.883 12.9942 13.883C13.4082 13.883 13.7442 14.219 13.7442 14.633V15.576C13.7442 18.016 11.7582 20 9.31924 20Z" fill="#212121"/>
<mask id="mask0_430_8669" style="mask-type:luminance" maskUnits="userSpaceOnUse" x="6" y="9" width="15" height="2">
<path fill-rule="evenodd" clip-rule="evenodd" d="M6.99609 9.25H20.537V10.75H6.99609V9.25Z" fill="white"/>
</mask>
<g mask="url(#mask0_430_8669)">
<path fill-rule="evenodd" clip-rule="evenodd" d="M19.7871 10.75H7.74609C7.33209 10.75 6.99609 10.414 6.99609 10C6.99609 9.586 7.33209 9.25 7.74609 9.25H19.7871C20.2011 9.25 20.5371 9.586 20.5371 10C20.5371 10.414 20.2011 10.75 19.7871 10.75Z" fill="#212121"/>
</g>
<mask id="mask1_430_8669" style="mask-type:luminance" maskUnits="userSpaceOnUse" x="16" y="6" width="5" height="8">
<path fill-rule="evenodd" clip-rule="evenodd" d="M16.1096 6.33521H20.537V13.666H16.1096V6.33521Z" fill="white"/>
</mask>
<g mask="url(#mask1_430_8669)">
<path fill-rule="evenodd" clip-rule="evenodd" d="M16.8594 13.666C16.6674 13.666 16.4744 13.593 16.3284 13.445C16.0364 13.151 16.0374 12.677 16.3304 12.385L18.7244 9.99996L16.3304 7.61596C16.0374 7.32396 16.0354 6.84996 16.3284 6.55596C16.6204 6.26196 17.0944 6.26196 17.3884 6.55396L20.3164 9.46896C20.4584 9.60896 20.5374 9.80096 20.5374 9.99996C20.5374 10.199 20.4584 10.391 20.3164 10.531L17.3884 13.447C17.2424 13.593 17.0504 13.666 16.8594 13.666Z" fill="#212121"/>
</g>
</svg>
