<svg width="20" height="20" viewBox="0 0 20 20" fill="none" xmlns="http://www.w3.org/2000/svg">
<path d="M9.99967 14.1668C9.55765 14.1668 9.13372 13.9912 8.82116 13.6787C8.5086 13.3661 8.33301 12.9422 8.33301 12.5002C8.33301 11.5752 9.07467 10.8335 9.99967 10.8335C10.4417 10.8335 10.8656 11.0091 11.1782 11.3217C11.4907 11.6342 11.6663 12.0581 11.6663 12.5002C11.6663 12.9422 11.4907 13.3661 11.1782 13.6787C10.8656 13.9912 10.4417 14.1668 9.99967 14.1668ZM14.9997 16.6668V8.3335H4.99967V16.6668H14.9997ZM14.9997 6.66683C15.4417 6.66683 15.8656 6.84242 16.1782 7.15498C16.4907 7.46755 16.6663 7.89147 16.6663 8.3335V16.6668C16.6663 17.1089 16.4907 17.5328 16.1782 17.8453C15.8656 18.1579 15.4417 18.3335 14.9997 18.3335H4.99967C4.55765 18.3335 4.13372 18.1579 3.82116 17.8453C3.5086 17.5328 3.33301 17.1089 3.33301 16.6668V8.3335C3.33301 7.4085 4.07467 6.66683 4.99967 6.66683H5.83301V5.00016C5.83301 3.89509 6.27199 2.83529 7.0534 2.05388C7.8348 1.27248 8.89461 0.833496 9.99967 0.833496C10.5468 0.833496 11.0887 0.94127 11.5942 1.15066C12.0997 1.36006 12.559 1.66697 12.946 2.05388C13.3329 2.4408 13.6398 2.90012 13.8492 3.40565C14.0586 3.91117 14.1663 4.45299 14.1663 5.00016V6.66683H14.9997ZM9.99967 2.50016C9.33663 2.50016 8.70075 2.76355 8.23191 3.2324C7.76307 3.70124 7.49967 4.33712 7.49967 5.00016V6.66683H12.4997V5.00016C12.4997 4.33712 12.2363 3.70124 11.7674 3.2324C11.2986 2.76355 10.6627 2.50016 9.99967 2.50016Z" fill="white"/>
</svg>
