<svg width="19" height="22" viewBox="0 0 19 22" fill="none" xmlns="http://www.w3.org/2000/svg">
<rect width="19" height="22" fill="#E5E5E5"/>
<g id="Iconography">
<g id="Content">
<rect width="1968" height="4624" transform="translate(-631 -1626)" fill="white"/>
<g id="Light - (Outline)">
<rect x="-491" y="-222" width="1688" height="552" rx="40" fill="#F5F5F5"/>
<g id="Iconly/Light-Outline/Notification">
<g id="Notification">
<g id="Group 3">
<mask id="mask0_3_2" style="mask-type:luminance" maskUnits="userSpaceOnUse" x="0" y="0" width="19" height="18">
<path id="Clip 2" fill-rule="evenodd" clip-rule="evenodd" d="M0 0H18.4969V17.348H0V0Z" fill="white"/>
</mask>
<g mask="url(#mask0_3_2)">
<path id="Fill 1" fill-rule="evenodd" clip-rule="evenodd" d="M9.24701 1.5C5.75201 1.5 3.31601 4.238 3.31601 6.695C3.31601 8.774 2.73901 9.735 2.22901 10.583C1.82001 11.264 1.49701 11.802 1.49701 12.971C1.66401 14.857 2.90901 15.848 9.24701 15.848C15.55 15.848 16.834 14.813 17 12.906C16.997 11.802 16.674 11.264 16.265 10.583C15.755 9.735 15.178 8.774 15.178 6.695C15.178 4.238 12.742 1.5 9.24701 1.5ZM9.24701 17.348C4.57101 17.348 0.345013 17.018 1.33547e-05 13.035C-0.00298665 11.387 0.500013 10.549 0.944013 9.811C1.39301 9.063 1.81601 8.358 1.81601 6.695C1.81601 3.462 4.80201 0 9.24701 0C13.692 0 16.678 3.462 16.678 6.695C16.678 8.358 17.101 9.063 17.55 9.811C17.994 10.549 18.497 11.387 18.497 12.971C18.148 17.018 13.923 17.348 9.24701 17.348Z" fill="#212121"/>
</g>
</g>
<path id="Fill 4" fill-rule="evenodd" clip-rule="evenodd" d="M9.19827 21.5H9.19627C8.07527 21.499 7.01427 21.005 6.20927 20.108C5.93227 19.801 5.95727 19.326 6.26527 19.05C6.57327 18.772 7.04727 18.797 7.32427 19.106C7.84227 19.683 8.50727 20 9.19727 20H9.19827C9.89127 20 10.5593 19.683 11.0783 19.105C11.3563 18.798 11.8303 18.773 12.1373 19.05C12.4453 19.327 12.4703 19.802 12.1933 20.109C11.3853 21.006 10.3223 21.5 9.19827 21.5Z" fill="#212121"/>
</g>
</g>
</g>
</g>
</g>
</svg>
