<svg width="21" height="20" viewBox="0 0 21 20" fill="none" xmlns="http://www.w3.org/2000/svg">
<path fill-rule="evenodd" clip-rule="evenodd" d="M19.8887 12.8955H15.8407C13.9437 12.8955 12.3997 11.3526 12.3987 9.45655C12.3987 7.55855 13.9427 6.01455 15.8407 6.01355H19.8887C20.3027 6.01355 20.6387 6.34955 20.6387 6.76355C20.6387 7.17755 20.3027 7.51355 19.8887 7.51355H15.8407C14.7697 7.51455 13.8987 8.38555 13.8987 9.45555C13.8987 10.5245 14.7707 11.3955 15.8407 11.3955H19.8887C20.3027 11.3955 20.6387 11.7315 20.6387 12.1455C20.6387 12.5595 20.3027 12.8955 19.8887 12.8955Z" fill="#212121"/>
<path fill-rule="evenodd" clip-rule="evenodd" d="M16.2983 10.1436H15.9863C15.5723 10.1436 15.2363 9.80755 15.2363 9.39355C15.2363 8.97955 15.5723 8.64355 15.9863 8.64355H16.2983C16.7123 8.64355 17.0483 8.97955 17.0483 9.39355C17.0483 9.80755 16.7123 10.1436 16.2983 10.1436Z" fill="#212121"/>
<mask id="mask0_430_8210" style="mask-type:luminance" maskUnits="userSpaceOnUse" x="0" y="0" width="21" height="20">
<path fill-rule="evenodd" clip-rule="evenodd" d="M0 0H20.6386V19.1729H0V0Z" fill="white"/>
</mask>
<g mask="url(#mask0_430_8210)">
<path fill-rule="evenodd" clip-rule="evenodd" d="M5.99751 1.5C3.51751 1.5 1.49951 3.518 1.49951 5.998V13.175C1.49951 15.655 3.51751 17.673 5.99751 17.673H14.6415C17.1215 17.673 19.1385 15.655 19.1385 13.175V5.998C19.1385 3.518 17.1215 1.5 14.6415 1.5H5.99751ZM14.6415 19.173H5.99751C2.69051 19.173 -0.000488281 16.482 -0.000488281 13.175V5.998C-0.000488281 2.69 2.69051 0 5.99751 0H14.6415C17.9485 0 20.6385 2.69 20.6385 5.998V13.175C20.6385 16.482 17.9485 19.173 14.6415 19.173Z" fill="#212121"/>
</g>
<path fill-rule="evenodd" clip-rule="evenodd" d="M10.6846 6.03809H5.28564C4.87164 6.03809 4.53564 5.70209 4.53564 5.28809C4.53564 4.87409 4.87164 4.53809 5.28564 4.53809H10.6846C11.0986 4.53809 11.4346 4.87409 11.4346 5.28809C11.4346 5.70209 11.0986 6.03809 10.6846 6.03809Z" fill="#212121"/>
</svg>
