<svg width="23" height="24" viewBox="0 0 23 24" fill="none" xmlns="http://www.w3.org/2000/svg">
<path d="M3.65192 20.4L19.5762 12.92C19.7409 12.8432 19.8812 12.715 19.9799 12.5514C20.0786 12.3878 20.1312 12.1961 20.1312 12C20.1312 11.8039 20.0786 11.6122 19.9799 11.4486C19.8812 11.285 19.7409 11.1568 19.5762 11.08L3.65192 3.59999C3.51404 3.53409 3.36334 3.50684 3.21344 3.5207C3.06354 3.53456 2.91915 3.58909 2.79329 3.67939C2.66743 3.76968 2.56406 3.89289 2.49251 4.03789C2.42096 4.1829 2.38348 4.34515 2.38345 4.50999L2.37433 9.11999C2.37433 9.61999 2.71198 10.05 3.16826 10.11L16.0629 12L3.16826 13.88C2.71198 13.95 2.37433 14.38 2.37433 14.88L2.38345 19.49C2.38345 20.2 3.04963 20.69 3.65192 20.4Z" fill="#2E398F"/>
</svg>
