<svg width="21" height="21" viewBox="0 0 21 21" fill="none" xmlns="http://www.w3.org/2000/svg">
<path fill-rule="evenodd" clip-rule="evenodd" d="M9.21133 9.21189L8.16433 12.5589L11.5103 11.5109L12.5583 8.16389L9.21133 9.21189ZM7.02033 14.4519C6.82433 14.4519 6.63233 14.3749 6.48933 14.2329C6.29233 14.0349 6.22033 13.7439 6.30433 13.4789L7.89733 8.38989C7.97033 8.15389 8.15433 7.97089 8.38833 7.89789L13.4773 6.30489C13.7443 6.21989 14.0343 6.29289 14.2323 6.48989C14.4293 6.68789 14.5013 6.97889 14.4173 7.24389L12.8253 12.3329C12.7523 12.5679 12.5673 12.7519 12.3333 12.8249L7.24433 14.4179C7.17033 14.4409 7.09433 14.4519 7.02033 14.4519Z" fill="#212121"/>
<mask id="mask0_430_8843" style="mask-type:luminance" maskUnits="userSpaceOnUse" x="0" y="0" width="21" height="21">
<path fill-rule="evenodd" clip-rule="evenodd" d="M0 0H20.7218V20.7217H0V0Z" fill="white"/>
</mask>
<g mask="url(#mask0_430_8843)">
<path fill-rule="evenodd" clip-rule="evenodd" d="M10.3608 1.5C5.47476 1.5 1.49976 5.476 1.49976 10.361C1.49976 15.247 5.47476 19.222 10.3608 19.222C15.2468 19.222 19.2218 15.247 19.2218 10.361C19.2218 5.476 15.2468 1.5 10.3608 1.5ZM10.3608 20.722C4.64776 20.722 -0.000244141 16.074 -0.000244141 10.361C-0.000244141 4.648 4.64776 0 10.3608 0C16.0738 0 20.7218 4.648 20.7218 10.361C20.7218 16.074 16.0738 20.722 10.3608 20.722Z" fill="#212121"/>
</g>
</svg>
